<svg xmlns="http://www.w3.org/2000/svg" viewBox="0 0 1200 600">
  <rect fill="#FF0000" width="300" height="600"/>
  <rect fill="#FFFFFF" x="300" width="600" height="600"/>
  <rect fill="#FF0000" x="900" width="300" height="600"/>
  <path fill="#FF0000" d="M600 100l-32.5 61.6 10.6-1.6-23.4 44.4 16.3-7.2-20.3 38.5h53.5l-6.8 11.4h34.5l-7.4 14.1 39-17.3-3.5 7.2h17.3l-12.4 23.5 55.5-26-16.3 37.2 11.3-2.3L600 440l-115.7-156.4 11.3 2.3-16.3-37.2 55.5 26-12.4-23.5H540l-3.5-7.2 39 17.3-7.4-14.1h34.5l-6.8-11.4h53.5l-20.3-38.5 16.3 7.2-23.4-44.4 10.6 1.6z"/>
</svg>
